<svg xmlns="http://www.w3.org/2000/svg" xmlns:xlink="http://www.w3.org/1999/xlink" viewBox="0 0 1948.1514 543.3037">
  <defs>
    <style>
      .cls-1 {
        fill: none;
      }

      .cls-2 {
        clip-path: url(#clip-path);
      }

      .cls-3 {
        fill: #00843d;
      }

      .cls-4 {
        fill: #212721;
      }
    </style>
    <clipPath id="clip-path">
      <rect class="cls-1" width="1948.1514" height="543.3037"/>
    </clipPath>
  </defs>
  <title>turtlecoin_wordmark</title>
  <g id="Layer_2" data-name="Layer 2">
    <g class="cls-2">
      <g>
        <g>
          <path class="cls-3" d="M215.791,305.5957a11.9992,11.9992,0,0,1-10.3926-6l-22.0937-38.2676a12,12,0,0,1,0-12l22.0937-38.2676a11.9992,11.9992,0,0,1,10.3926-6h45.0703a11.9992,11.9992,0,0,1,10.3926,6l22.0937,38.2676a12,12,0,0,1,0,12l-22.0937,38.2676a11.9992,11.9992,0,0,1-10.3926,6Z"/>
          <g>
            <path class="cls-3" d="M155.5918,245.33a11.99919,11.99919,0,0,0,10.3926-6l22.0937-38.2675a12,12,0,0,0,0-12l-27.5537-47.7247-53.7363,29.334a12.0146,12.0146,0,0,0-6.2495,10.7998,337.25551,337.25551,0,0,0,7.4702,63.8584Z"/>
            <path class="cls-3" d="M321.06049,245.33a11.99891,11.99891,0,0,1-10.3925-6l-22.0938-38.2675a12.00045,12.00045,0,0,1,0-12l27.5537-47.7247,53.7354,29.334a12.01618,12.01618,0,0,1,6.25,10.7998,337.38491,337.38491,0,0,1-7.4698,63.8584Z"/>
            <path class="cls-3" d="M244.07519,102.0029a11.999,11.999,0,0,0-11.5,0L178.082,131.7514l27.3154,47.3111a11.999,11.999,0,0,0,10.3917,6h45.0722a11.99888,11.99888,0,0,0,10.3916-6l27.3154-47.3111Z"/>
            <path class="cls-3" d="M112.9697,265.33a335.12415,335.12415,0,0,0,48.5879,102.2012l26.5205-45.9336a12,12,0,0,0,0-12L165.9844,271.33a11.99919,11.99919,0,0,0-10.3926-6Z"/>
            <path class="cls-3" d="M363.68259,265.33a335.12407,335.12407,0,0,1-48.5889,102.2012l-26.5195-45.9336a12.00045,12.00045,0,0,1,0-12L310.668,271.33a11.99891,11.99891,0,0,1,10.3925-6Z"/>
            <path class="cls-3" d="M215.79,325.5957a11.99879,11.99879,0,0,0-10.3916,6L174.626,384.8935a338.63116,338.63116,0,0,0,56.3457,55.3565,12.00012,12.00012,0,0,0,14.70111.0068,338.61639,338.61639,0,0,0,56.35359-55.3633l-30.7725-53.2978a11.99879,11.99879,0,0,0-10.3916-6Z"/>
          </g>
        </g>
        <g>
          <path class="cls-4" d="M468.08689,226.3339H426.3838V187.2851H553.17669v39.0488h-41.7011V356.0175h-43.3887Z"/>
          <path class="cls-4" d="M573.667,289.248V187.2851h43.6289V289.7304c0,20.2481,9.8828,29.8907,24.8281,29.8907,15.1856,0,24.8281-9.1602,24.8281-29.168V187.2851h43.8711V288.5253c0,48.9336-27.7207,70.3848-68.94138,70.3848C600.665,358.9101,573.667,337.2168,573.667,289.248Z"/>
          <path class="cls-4" d="M739.02828,187.2851h66.2891c22.6582,0,39.77342,6.0274,50.6191,17.1133,9.4004,9.4023,14.7051,22.418,14.7051,39.5332v1.2051c0,25.0683-12.2949,40.7383-30.13278,49.6562l34.71088,61.2246h-48.9336l-28.6836-52.3066h-15.4258v52.3066h-43.1484Zm64.5996,81.957c14.7051,0,23.3828-8.4375,23.3828-21.9355v-.4824c0-14.4629-9.1601-21.6934-23.623-21.6934h-21.211v44.1113Z"/>
          <path class="cls-4" d="M928.49508,226.3339h-41.7012V187.2851h126.791v39.0488H971.8818V356.0175H928.49508Z"/>
          <path class="cls-4" d="M1035.7627,187.2851h43.3887V316.9687h66.2871v39.0488H1035.7627Z"/>
          <path class="cls-4" d="M1167.374,187.2851h116.1836v38.086h-73.2773v27.7207h66.0488v35.916h-66.0488v28.9258h74.2421v38.0839H1167.374Z"/>
          <path class="cls-4" d="M1303.0869,273.3378v-2.8906c0-52.0664,33.9883-86.0547,78.3418-86.0547,26.5137,0,44.5937,10.3653,58.332,26.5157l-27.9609,29.6484c-7.2305-8.6777-16.3906-15.9082-29.6484-15.9082-19.7657,0-34.4688,17.5957-34.4688,46.2812v.9629c0,30.1309,14.9453,46.7637,34.4688,46.7637,14.4628,0,23.1406-7.7129,30.8535-16.6328l27.4785,27.9629c-13.7383,16.873-32.541,28.9238-60.7442,28.9238C1336.5928,358.9101,1303.0869,325.8867,1303.0869,273.3378Z"/>
          <path class="cls-4" d="M1451.5752,273.58v-3.6152c0-50.3789,33.0234-85.8125,78.3398-85.8125,45.5586,0,78.0996,34.9512,78.0996,85.5703v3.6152c0,50.3809-33.0234,85.8145-78.3398,85.8145C1484.1162,359.1523,1451.5752,324.1992,1451.5752,273.58Zm112.0859-.4824v-2.6504c0-29.1679-13.9804-47.0058-33.9863-47.0058s-33.7481,17.5976-33.7481,46.7636v2.6524c0,29.166,13.9805,47.0039,33.9883,47.0039C1550.1631,319.8613,1563.6611,302.2636,1563.6611,273.0976Z"/>
          <path class="cls-4" d="M1633.8096,187.2851h43.3867V356.0175h-43.3867Z"/>
          <path class="cls-4" d="M1708.0498,187.2851h40.7363l56.166,84.8496V187.2851h42.6641V356.0175h-38.5664l-58.3359-88.4629v88.4629h-42.6641Z"/>
        </g>
      </g>
    </g>
  </g>
</svg>
